# xmcd CD database file
#
# Track frame offsets:
#	150
#	17700
#	31875
#	54000
#	72600
#	85200
#	98475
#	113475
#	127800
#	147300
#	168825
#	182850
#
# Disc length: 2625 seconds
#
# Revision: 0
# Processed by: cddbd v1.5.2PL0 Copyright (c) Steve Scherf et al.
# Submitted via: ACXtractor (MTCDDB.DLL V2003.12.21)
#
DISCID=900a3f0c
DTITLE=Brian Letton - The Many Sides Of
DYEAR=1998
DGENRE=Country
TTITLE0=A Stones Throw From You
TTITLE1=This Land a Part of You and Me
TTITLE2=A Picture of the Bush
TTITLE3=Beauriful Dreamer
TTITLE4=Where Legendary Stockmen Ride
TTITLE5=In His Loving Care
TTITLE6=In the Arms of a Memory
TTITLE7=The Wheels of Cob and Co
TTITLE8=Only a Memory will Last
TTITLE9=Granny Adeline
TTITLE10=Sing (away Your Troubles)
TTITLE11=You'll Never Walk Alone
EXTD=ID3G:   2 YEAR: 1998
EXTT0=
EXTT1=
EXTT2=
EXTT3=
EXTT4=
EXTT5=
EXTT6=
EXTT7=
EXTT8=
EXTT9=
EXTT10=
EXTT11=
PLAYORDER=
